<?xml version="1.0" encoding="UTF-8" standalone="no"?>
<svg width="145px" height="73px" viewBox="0 0 145 73" version="1.1" xmlns="http://www.w3.org/2000/svg" xmlns:xlink="http://www.w3.org/1999/xlink">
    <!-- Generator: Sketch 45.2 (43514) - http://www.bohemiancoding.com/sketch -->
    <title>Artboard</title>
    <desc>Created with Sketch.</desc>
    <defs></defs>
    <g id="Page-1" stroke="none" stroke-width="1" fill="none" fill-rule="evenodd">
        <g id="Artboard" fill-rule="nonzero">
            <g id="logo" transform="translate(1.000000, 0.000000)">
                <polygon id="Shape" fill="#1D1D1B" points="39.24 72.51 36 72.51 49.43 37.59 54.84 51.28 58.6 43.94 61.41 47.8 77.1 0 83.02 58.07 91.79 32.49 96.85 46.44 101.14 37.34 107.83 57.4 114.32 42.57 121.01 52.78 128.57 41.34 137.83 56.17 140.33 51.82 143.67 51.84 137.93 61.12 128.43 47 120.99 58.23 115.02 49.11 107.5 66.61 100.53 45.67 96.48 54.24 91.87 41.51 81.32 70.27 75.56 16 62.59 54.52 59.06 49.69 54.5 58.64 49.57 46.05"></polygon>
                <path d="M29.67,42.72 L27.36,41.36 L29.23,39.36 C31.4627927,36.82845 32.7057592,33.5754291 32.73,30.2 C32.7304594,22.8465243 26.8130163,16.8621923 19.46,16.78 L19,16.78 L19,10.51 L16,10.51 L16,16.84 L14,16.84 L14,10.51 L11,10.51 L11,16.51 L0,16.51 L0,19.51 L3,19.51 L3.15,64.51 L0,64.51 L0,66.95 L11,66.95 L11,72.51 L14,72.51 L14,66.97 L16,66.97 L16,72.51 L19,72.51 L19,66.95 L23.08,66.95 C30.2375483,66.8082492 35.9623082,60.9589412 35.95,53.8 C35.9330879,49.2639703 33.5530319,45.0647632 29.67,42.72 Z M6,19.51 L6,19.76 L19.13,19.76 C22.899152,19.7349913 26.3953341,21.7227011 28.3015682,24.9743782 C30.2078023,28.2260553 30.2344862,32.2476926 28.3715682,35.5243783 C26.5086502,38.801064 23.039152,40.8349915 19.27,40.86 L6,40.73 L5.9,19.51 L6,19.51 Z M23,64.13 L6,64.19 L6,43.81 L22.78,43.75 C25.4658962,43.6731675 28.066386,44.6980449 29.9776763,46.5866716 C31.8889665,48.4752983 32.9447897,51.0633785 32.9,53.75 C32.89,59.56 28.8,64.11 23,64.13 Z" id="Shape" fill="#000000"></path>
                <circle id="Oval" fill="#1D1D1B" cx="49.46" cy="32.51" r="1.88"></circle>
                <circle id="Oval" fill="#1D1D1B" cx="114.5" cy="32.51" r="1.88"></circle>
                <rect id="Rectangle-path" fill="#1D1D1B" transform="translate(74.745000, 24.135000) rotate(90.000000) translate(-74.745000, -24.135000) " x="73.32" y="15.39" width="2.85" height="17.49"></rect>
            </g>
        </g>
    </g>
</svg>