<svg id="Ebene_1" data-name="Ebene 1" xmlns="http://www.w3.org/2000/svg" viewBox="0 0 145.15 100.78"><defs><style>.cls-1,.cls-2{fill:#1d1d1b;}.cls-2{font-size:11px;font-family:Open Sans;letter-spacing:1px;}</style></defs><title>Logo_bitcoin_seismograph</title><polygon class="cls-1" points="39.24 72.51 36 72.51 49.43 37.59 54.84 51.28 58.6 43.94 61.41 47.8 77.1 0 83.02 58.07 91.79 32.49 96.85 46.44 101.14 37.34 107.83 57.4 114.32 42.57 121.01 52.78 128.57 41.34 137.83 56.17 140.33 51.82 143.67 51.84 137.93 61.12 128.43 47 120.99 58.23 115.02 49.11 107.5 66.61 100.53 45.67 96.48 54.24 91.87 41.51 81.32 70.27 75.56 16 62.59 54.52 59.06 49.69 54.5 58.64 49.57 46.05 39.24 72.51"/><text class="cls-2" transform="translate(1.98 97.8)">BITCOIN SEISMOGRAPH</text><path d="M353.67,297.21l-2.31-1.36,1.87-2a14,14,0,0,0,3.5-9.16,13.42,13.42,0,0,0-13.27-13.42H343V265h-3v6.33h-2V265h-3v6H324v3h3l0.15,45H324v2.44l11,0V327h3v-5.54h2V327h3v-5.56h4.08a13.13,13.13,0,0,0,12.87-13.15A13,13,0,0,0,353.67,297.21ZM330,274v0.25l13.13,0a10.55,10.55,0,1,1,.14,21.1L330,295.22,329.9,274H330Zm17,44.62-17,.06L330,298.3l16.78-.06a9.84,9.84,0,0,1,10.12,10C356.89,314.05,352.8,318.6,347,318.62Z" transform="translate(-324 -248.49)"/><circle class="cls-1" cx="49.46" cy="32.51" r="1.88"/><circle class="cls-1" cx="114.5" cy="32.51" r="1.88"/><rect class="cls-1" x="397.33" y="263.88" width="2.85" height="17.49" transform="translate(347.37 -374.62) rotate(90)"/></svg>